<svg
    version="1.0"
    xmlns="http://www.w3.org/2000/svg"
    xmlns:xlink="http://www.w3.org/1999/xlink"
    width="512"
    height="512"
    viewBox="0 0 512 512"
  >
    <svg id="global-svg-defs" version="1.0" xmlns="http://www.w3.org/2000/svg" width="0" height="0" viewBox="0 0 340.000000 250.000000" preserveAspectRatio="xMidYMid meet" color-interpolation-filters="sRGB" class="el-tooltip" style="margin: auto;" xmlns:xlink="http://www.w3.org/1999/xlink">
    <defs>
      <pattern id="watermark" patternUnits="userSpaceOnUse" width="100%" height="100%">
        <image xlink:href="https://www.logosc.cn/img/watermark/LOGOSC-watermark.png" x="0" y="0" width="100%" height="100%">
        </image>
      </pattern>
                    <linearGradient id="92" x1="0%" y1="0%" x2="100%" y2="0%">
          <stop offset="0%" stop-color="#fa71cd" data-darkreader-inline-stopcolor="" style="--darkreader-inline-stopcolor: #86055c;"></stop>
          <stop offset="100%" stop-color="#9b59b6" data-darkreader-inline-stopcolor="" style="--darkreader-inline-stopcolor: #713b87;"></stop>
        </linearGradient>
              <linearGradient id="93" x1="0%" y1="0%" x2="100%" y2="0%">
          <stop offset="0%" stop-color="#f9d423" data-darkreader-inline-stopcolor="" style="--darkreader-inline-stopcolor: #887104;"></stop>
          <stop offset="100%" stop-color="#f83600" data-darkreader-inline-stopcolor="" style="--darkreader-inline-stopcolor: #c62b00;"></stop>
        </linearGradient>
              <linearGradient id="94" x1="0%" y1="0%" x2="100%" y2="0%">
          <stop offset="0%" stop-color="#0064d2" data-darkreader-inline-stopcolor="" style="--darkreader-inline-stopcolor: #0050a8;"></stop>
          <stop offset="100%" stop-color="#1cb0f6" data-darkreader-inline-stopcolor="" style="--darkreader-inline-stopcolor: #0780b9;"></stop>
        </linearGradient>
              <linearGradient id="95" x1="0%" y1="0%" x2="100%" y2="0%">
          <stop offset="0%" stop-color="#f00978" data-darkreader-inline-stopcolor="" style="--darkreader-inline-stopcolor: #c00760;"></stop>
          <stop offset="100%" stop-color="#3f51b1" data-darkreader-inline-stopcolor="" style="--darkreader-inline-stopcolor: #32418e;"></stop>
        </linearGradient>
              <linearGradient id="96" x1="0%" y1="0%" x2="100%" y2="0%">
          <stop offset="0%" stop-color="#7873f5" data-darkreader-inline-stopcolor="" style="--darkreader-inline-stopcolor: #0e0984;"></stop>
          <stop offset="100%" stop-color="#ec77ab" data-darkreader-inline-stopcolor="" style="--darkreader-inline-stopcolor: #7e1242;"></stop>
        </linearGradient>
              <linearGradient id="97" x1="0%" y1="0%" x2="100%" y2="0%">
          <stop offset="0%" stop-color="#f9d423" data-darkreader-inline-stopcolor="" style="--darkreader-inline-stopcolor: #887104;"></stop>
          <stop offset="100%" stop-color="#e14fad" data-darkreader-inline-stopcolor="" style="--darkreader-inline-stopcolor: #951969;"></stop>
        </linearGradient>
              <linearGradient id="98" x1="0%" y1="0%" x2="100%" y2="0%">
          <stop offset="0%" stop-color="#009efd" data-darkreader-inline-stopcolor="" style="--darkreader-inline-stopcolor: #007eca;"></stop>
          <stop offset="100%" stop-color="#2af598" data-darkreader-inline-stopcolor="" style="--darkreader-inline-stopcolor: #08b177;"></stop>
        </linearGradient>
              <linearGradient id="99" x1="0%" y1="0%" x2="100%" y2="0%">
          <stop offset="0%" stop-color="#ffcc00" data-darkreader-inline-stopcolor="" style="--darkreader-inline-stopcolor: #997a00;"></stop>
          <stop offset="100%" stop-color="#00b140" data-darkreader-inline-stopcolor="" style="--darkreader-inline-stopcolor: #008e33;"></stop>
        </linearGradient>
              <linearGradient id="100" x1="0%" y1="0%" x2="100%" y2="0%">
          <stop offset="0%" stop-color="#d51007" data-darkreader-inline-stopcolor="" style="--darkreader-inline-stopcolor: #aa0d06;"></stop>
          <stop offset="100%" stop-color="#ff8177" data-darkreader-inline-stopcolor="" style="--darkreader-inline-stopcolor: #850a00;"></stop>
        </linearGradient>
              <linearGradient id="102" x1="0%" y1="0%" x2="100%" y2="0%">
          <stop offset="0%" stop-color="#a2b6df" data-darkreader-inline-stopcolor="" style="--darkreader-inline-stopcolor: #20345e;"></stop>
          <stop offset="100%" stop-color="#0c3483" data-darkreader-inline-stopcolor="" style="--darkreader-inline-stopcolor: #0a2a69;"></stop>
        </linearGradient>
              <linearGradient id="103" x1="0%" y1="0%" x2="100%" y2="0%">
          <stop offset="0%" stop-color="#7ac5d8" data-darkreader-inline-stopcolor="" style="--darkreader-inline-stopcolor: #236677;"></stop>
          <stop offset="100%" stop-color="#eea2a2" data-darkreader-inline-stopcolor="" style="--darkreader-inline-stopcolor: #631212;"></stop>
        </linearGradient>
              <linearGradient id="104" x1="0%" y1="0%" x2="100%" y2="0%">
          <stop offset="0%" stop-color="#00ecbc" data-darkreader-inline-stopcolor="" style="--darkreader-inline-stopcolor: #00bd96;"></stop>
          <stop offset="100%" stop-color="#007adf" data-darkreader-inline-stopcolor="" style="--darkreader-inline-stopcolor: #0062b2;"></stop>
        </linearGradient>
              <linearGradient id="105" x1="0%" y1="0%" x2="100%" y2="0%">
          <stop offset="0%" stop-color="#b88746" data-darkreader-inline-stopcolor="" style="--darkreader-inline-stopcolor: #936c38;"></stop>
          <stop offset="100%" stop-color="#fdf5a6" data-darkreader-inline-stopcolor="" style="--darkreader-inline-stopcolor: #4d4602;"></stop>
        </linearGradient>
              <linearGradient id="107" x1="0%" y1="0%" x2="100%" y2="0%">
          <stop offset="0%" stop-color="#ffbf00" data-darkreader-inline-stopcolor="" style="--darkreader-inline-stopcolor: #997300;"></stop>
          <stop offset="100%" stop-color="#26b5f8" data-darkreader-inline-stopcolor="" style="--darkreader-inline-stopcolor: #067cb4;"></stop>
        </linearGradient>
          </defs>
  </svg>
    <rect
      x="0"
      y="0"
      width="100%"
      height="100%"
      fill="transparent"
      fill-opacity="1"
    ></rect>
    <svg data-v-0dd9719b="" version="1.0" xmlns="http://www.w3.org/2000/svg" xmlns:xlink="http://www.w3.org/1999/xlink" width="100%" height="100%" viewBox="0 0 100 100" preserveAspectRatio="xMidYMid meet" color-interpolation-filters="sRGB" style="margin: auto;"> <rect data-v-0dd9719b="" x="0" y="0" width="100%" height="100%" fill="#ffffff" fill-opacity="1" class="background" style="display: none; --darkreader-inline-fill: #e8e6e3;" data-darkreader-inline-fill=""/> <rect data-v-0dd9719b="" x="0" y="0" width="100%" height="100%" fill="url(#watermark)" fill-opacity="1" class="watermarklayer" style="display: none;"/> <g data-v-0dd9719b="" fill="#333" class="iconsvg-imagesvg" data-darkreader-inline-fill="" style="--darkreader-inline-fill: #262a2b;"><rect fill="#333" fill-opacity="0" stroke-width="2" x="0" y="0" width="100" height="100" class="image-rect" data-darkreader-inline-fill="" style="--darkreader-inline-fill: #262a2b;"/> <svg viewBox="0 0 60 68.96313920209649" x="0" y="0" width="100" height="100" class="image-svg-svg bn" style="overflow: visible;"><g hollow-target=""><g><svg xmlns="http://www.w3.org/2000/svg" xmlns:xlink="http://www.w3.org/1999/xlink" version="1.1" x="0" y="0" viewBox="10.44 4.531 79.12 90.939" enable-background="new 0 0 100 100" xml:space="preserve" style="overflow: visible;" width="60" height="68.96313920209649" filtersec="colorsb993169730" filter="url(#alwFlyu6lZ79wq0YeCxaI)"><g transform="scale(1, 1) skewX(0)"><path d="M50.367,95.47L10.806,73.052l-0.366-45.47L49.634,4.531l39.561,22.417l0.365,45.469L50.367,95.47z M13.792,71.296  l36.546,20.709L86.547,70.71l-0.338-42.006L49.663,7.995L13.453,29.29L13.792,71.296z"/><path d="M50.326,90.426L15.153,70.495l-0.326-40.426L49.675,9.573l0.251,0.142l34.921,19.79l0.002,0.289l0.323,40.137l-0.248,0.146  L50.326,90.426z M16.148,69.909l34.168,19.362l33.853-19.909L83.852,30.09L49.685,10.728L15.832,30.638L16.148,69.909z"/></g><defs><filter id="alwFlyu6lZ79wq0YeCxaI"><feColorMatrix type="matrix" values="0 0 0 0 0.19921875  0 0 0 0 0.19921875  0 0 0 0 0.19921875  0 0 0 1 0"/></filter></defs></svg></g> <g filter="url(#colors2014272432)"><svg xmlns="http://www.w3.org/2000/svg" xmlns:xlink="http://www.w3.org/1999/xlink" viewBox="0 0 88.34400000000002 69.69600000000001" width="45" height="51.72235" x="7.5" y="8.620394601048243" class="image-svg-letter"><path transform="translate(-2.4480000000000004 47.44800000000001)" d="M39.74-46.87L50.11-47.23L49.68 4.68L38.45 4.68L12.96-29.66L13.32 4.68L2.95 5.04L2.45-47.45L13.68-47.02L39.46-13.18L39.74-46.87ZM77.47-31.25Q83.59-30.96 87.19-26.35Q90.79-21.74 90.79-14.40L90.79-14.40Q90.79-9.14 88.88-4.82Q86.98-0.50 83.59 1.94Q80.21 4.39 75.67 4.39L75.67 4.39Q70.70 4.39 65.30 1.44L65.30 1.44L65.95 22.25L54.65 22.25L54.65-30.53L63.65-30.46L64.37-25.34Q68.69-28.87 71.82-30.10Q74.95-31.32 77.47-31.25L77.47-31.25ZM74.23-4.46Q77.76-4.46 79.92-6.77Q82.08-9.07 82.08-12.89L82.08-12.89Q82.08-16.85 79.74-19.33Q77.40-21.82 73.58-21.82L73.58-21.82Q69.91-21.82 67.43-19.48Q64.94-17.14 64.94-13.54L64.94-13.54Q64.94-9.86 67.72-7.16Q70.49-4.46 74.23-4.46L74.23-4.46Z"/></svg></g></g></svg> <defs><filter id="colors2014272432"><feColorMatrix type="matrix" values="0 0 0 0 0.19921875  0 0 0 0 0.19921875  0 0 0 0 0.19921875  0 0 0 1 0" class="icon-fecolormatrix"/></filter> <filter id="colorsf525193087"><feColorMatrix type="matrix" values="0 0 0 0 0.99609375  0 0 0 0 0.99609375  0 0 0 0 0.99609375  0 0 0 1 0" class="icon-fecolormatrix"/></filter> <filter id="colorsb993169730"><feColorMatrix type="matrix" values="0 0 0 0 0  0 0 0 0 0  0 0 0 0 0  0 0 0 1 0" class="icon-fecolormatrix"/></filter></defs></g><defs v-gra="od"/></svg>
  </svg>